<svg xmlns="http://www.w3.org/2000/svg" xmlns:xlink="http://www.w3.org/1999/xlink" width="300" zoomAndPan="magnify" viewBox="0 0 224.87999 225" height="300" preserveAspectRatio="xMidYMid meet" version="1.0"><defs><clipPath id="id1"><path d="M 37.570312 16 L 194.984375 16 L 194.984375 192.921875 L 37.570312 192.921875 Z M 37.570312 16 " clip-rule="nonzero"/></clipPath><clipPath id="id2"><path d="M 39 103 L 193 103 L 193 192.921875 L 39 192.921875 Z M 39 103 " clip-rule="nonzero"/></clipPath><clipPath id="id3"><path d="M 116 60 L 194.984375 60 L 194.984375 149 L 116 149 Z M 116 60 " clip-rule="nonzero"/></clipPath></defs><g clip-path="url(#id1)"><path fill="#5c8dbc" d="M 194.742188 67.882812 C 194.742188 64.925781 194.101562 62.3125 192.816406 60.070312 C 191.558594 57.863281 189.675781 56.015625 187.144531 54.554688 C 166.246094 42.539062 145.335938 30.5625 124.445312 18.535156 C 118.8125 15.292969 113.355469 15.410156 107.765625 18.699219 C 99.449219 23.589844 57.808594 47.378906 45.398438 54.546875 C 40.292969 57.496094 37.804688 62.011719 37.804688 67.878906 C 37.796875 92.042969 37.804688 116.203125 37.796875 140.367188 C 37.796875 143.257812 38.402344 145.816406 39.628906 148.027344 C 40.890625 150.300781 42.804688 152.207031 45.394531 153.699219 C 57.800781 160.863281 99.445312 184.648438 107.761719 189.542969 C 113.355469 192.835938 118.816406 192.953125 124.445312 189.707031 C 145.339844 177.679688 166.253906 165.703125 187.152344 153.691406 C 189.742188 152.199219 191.652344 150.292969 192.917969 148.023438 C 194.140625 145.816406 194.75 143.25 194.75 140.355469 C 194.75 140.355469 194.75 92.050781 194.742188 67.882812 " fill-opacity="1" fill-rule="nonzero"/></g><g clip-path="url(#id2)"><path fill="#1a4674" d="M 116.511719 103.886719 L 39.632812 148.027344 C 40.890625 150.300781 42.804688 152.203125 45.394531 153.699219 C 57.800781 160.863281 99.445312 184.648438 107.761719 189.542969 C 113.355469 192.835938 118.816406 192.953125 124.445312 189.707031 C 145.339844 177.679688 166.253906 165.703125 187.152344 153.691406 C 189.742188 152.199219 191.652344 150.292969 192.917969 148.023438 L 116.511719 103.886719 " fill-opacity="1" fill-rule="nonzero"/></g><path fill="#1a4674" d="M 93.742188 116.960938 C 98.214844 124.75 106.625 130.003906 116.269531 130.003906 C 125.980469 130.003906 134.4375 124.683594 138.886719 116.8125 L 116.511719 103.886719 L 93.742188 116.960938 " fill-opacity="1" fill-rule="nonzero"/><g clip-path="url(#id3)"><path fill="#1b598e" d="M 194.742188 67.882812 C 194.742188 64.925781 194.101562 62.3125 192.816406 60.070312 L 116.511719 103.886719 L 192.917969 148.023438 C 194.136719 145.816406 194.746094 143.25 194.746094 140.355469 C 194.746094 140.355469 194.746094 92.050781 194.742188 67.882812 " fill-opacity="1" fill-rule="nonzero"/></g><path fill="#ffffff" d="M 190.539062 107.039062 L 184.570312 107.039062 L 184.570312 112.992188 L 178.597656 112.992188 L 178.597656 107.039062 L 172.625 107.039062 L 172.625 101.089844 L 178.597656 101.089844 L 178.597656 95.136719 L 184.570312 95.136719 L 184.570312 101.089844 L 190.539062 101.089844 L 190.539062 107.039062 " fill-opacity="1" fill-rule="nonzero"/><path fill="#ffffff" d="M 168.75 107.039062 L 162.78125 107.039062 L 162.78125 112.992188 L 156.8125 112.992188 L 156.8125 107.039062 L 150.84375 107.039062 L 150.84375 101.089844 L 156.8125 101.089844 L 156.8125 95.136719 L 162.78125 95.136719 L 162.78125 101.089844 L 168.75 101.089844 L 168.75 107.039062 " fill-opacity="1" fill-rule="nonzero"/><path fill="#ffffff" d="M 138.886719 116.8125 C 134.4375 124.683594 125.980469 130.003906 116.269531 130.003906 C 106.625 130.003906 98.214844 124.75 93.742188 116.960938 C 91.566406 113.175781 90.316406 108.796875 90.316406 104.121094 C 90.316406 89.824219 101.9375 78.238281 116.269531 78.238281 C 125.855469 78.238281 134.222656 83.425781 138.714844 91.136719 L 161.402344 78.109375 C 152.386719 62.585938 135.554688 52.144531 116.269531 52.144531 C 87.484375 52.144531 64.148438 75.414062 64.148438 104.121094 C 64.148438 113.539062 66.664062 122.367188 71.054688 129.988281 C 80.046875 145.589844 96.929688 156.097656 116.269531 156.097656 C 135.652344 156.097656 152.558594 145.546875 161.535156 129.902344 L 138.886719 116.8125 " fill-opacity="1" fill-rule="nonzero"/></svg>