<svg xmlns="http://www.w3.org/2000/svg" xmlns:xlink="http://www.w3.org/1999/xlink" width="300" zoomAndPan="magnify" viewBox="0 0 224.87999 112.499997" height="150" preserveAspectRatio="xMidYMid meet" version="1.0"><path fill="#4e7896" d="M 39.058594 81.105469 C 39.058594 81.105469 35.472656 83.285156 41.554688 83.910156 C 48.855469 84.84375 52.773438 84.691406 60.875 83.132812 C 60.875 83.132812 63.054688 84.53125 66.015625 85.625 C 47.785156 93.414062 24.726562 85.160156 39.058594 81.113281 Z M 36.722656 70.984375 C 36.722656 70.984375 32.824219 73.945312 38.902344 74.566406 C 46.847656 75.347656 53.101562 75.5 63.832031 73.324219 C 63.832031 73.324219 65.234375 74.878906 67.574219 75.660156 C 45.601562 82.199219 20.980469 76.28125 36.722656 70.988281 Z M 79.726562 88.738281 C 79.726562 88.738281 82.378906 90.917969 76.765625 92.632812 C 66.328125 95.746094 32.980469 96.679688 23.632812 92.632812 C 20.359375 91.234375 26.59375 89.183594 28.617188 88.894531 C 30.648438 88.429688 31.734375 88.429688 31.734375 88.429688 C 28.152344 85.933594 7.894531 93.570312 21.449219 95.730469 C 58.6875 101.800781 89.386719 93.082031 79.722656 88.722656 Z M 40.769531 60.394531 C 40.769531 60.394531 23.785156 64.445312 34.691406 65.84375 C 39.367188 66.46875 48.558594 66.3125 57.128906 65.6875 C 64.140625 65.066406 71.152344 63.820312 71.152344 63.820312 C 71.152344 63.820312 68.65625 64.910156 66.945312 66 C 49.648438 70.515625 16.460938 68.492188 25.964844 63.820312 C 34.070312 59.925781 40.769531 60.371094 40.769531 60.371094 Z M 71.15625 77.371094 C 88.605469 68.335938 80.503906 59.617188 74.894531 60.707031 C 73.496094 61.019531 72.867188 61.328125 72.867188 61.328125 C 72.867188 61.328125 73.332031 60.398438 74.421875 60.085938 C 85.484375 56.191406 94.214844 71.765625 70.839844 77.839844 C 70.839844 77.839844 70.996094 77.683594 71.152344 77.371094 Z M 42.484375 101.976562 C 59.3125 103.066406 85.027344 101.351562 85.648438 93.410156 C 85.648438 93.410156 84.402344 96.527344 71.78125 98.859375 C 57.445312 101.507812 39.683594 101.195312 29.238281 99.484375 C 29.238281 99.484375 31.417969 101.351562 42.484375 101.976562 Z M 42.484375 101.976562 " fill-opacity="1" fill-rule="nonzero"/><path fill="#f58219" d="M 60.558594 9 C 60.558594 9 70.21875 18.816406 51.367188 33.609375 C 36.253906 45.597656 47.917969 52.453125 51.367188 60.238281 C 42.484375 52.296875 36.097656 45.289062 40.457031 38.746094 C 46.847656 29.089844 64.453125 24.417969 60.558594 9 Z M 55.574219 53.699219 C 60.089844 58.839844 54.324219 63.511719 54.324219 63.511719 C 54.324219 63.511719 65.855469 57.589844 60.558594 50.269531 C 55.730469 43.265625 51.988281 39.835938 72.242188 28.15625 C 72.242188 28.15625 40.300781 36.097656 55.570312 53.695312 Z M 55.574219 53.699219 " fill-opacity="1" fill-rule="nonzero"/><path fill="#4e7896" d="M 155.425781 72.1875 L 155.425781 48.507812 C 155.425781 42.46875 152.042969 38.363281 143.582031 38.363281 C 138.75 38.363281 134.636719 39.570312 131.011719 41.019531 L 132.222656 45.367188 C 134.878906 44.402344 138.269531 43.4375 141.890625 43.4375 C 146.484375 43.4375 148.660156 45.367188 148.660156 49.234375 L 148.660156 52.378906 L 146.261719 52.378906 C 134.65625 52.378906 129.339844 56.726562 129.339844 63.734375 C 129.339844 69.53125 132.964844 72.914062 139.492188 72.914062 C 143.601562 72.914062 146.746094 70.980469 149.644531 68.5625 L 150.128906 72.1875 L 155.441406 72.1875 Z M 148.65625 64.457031 C 146.242188 66.628906 143.578125 67.839844 141.160156 67.839844 C 138.015625 67.839844 136.085938 65.90625 136.085938 62.527344 C 136.085938 59.144531 138.019531 56.726562 145.753906 56.726562 L 148.65625 56.726562 Z M 178.144531 72.1875 L 169.683594 72.1875 L 159.535156 39.089844 L 166.785156 39.089844 L 173.070312 59.386719 L 174.523438 65.429688 C 177.667969 56.730469 180.082031 47.792969 181.046875 39.097656 L 188.296875 39.097656 C 186.367188 49.96875 182.984375 61.804688 178.148438 72.195312 Z M 217.300781 72.1875 L 217.300781 48.507812 C 217.300781 42.46875 213.917969 38.363281 205.453125 38.363281 C 200.617188 38.363281 196.511719 39.570312 192.882812 41.019531 L 193.851562 45.367188 C 196.753906 44.402344 200.136719 43.4375 203.761719 43.4375 C 208.355469 43.4375 210.527344 45.367188 210.527344 49.234375 L 210.527344 52.378906 L 208.113281 52.378906 C 196.511719 52.378906 191.195312 56.726562 191.195312 63.734375 C 191.195312 69.53125 194.578125 72.914062 201.105469 72.914062 C 205.457031 72.914062 208.597656 70.980469 211.5 68.5625 L 211.980469 72.1875 Z M 210.53125 64.457031 C 208.117188 66.628906 205.457031 67.839844 203.039062 67.839844 C 199.894531 67.839844 197.964844 65.90625 197.964844 62.527344 C 197.964844 59.144531 199.898438 56.726562 207.632812 56.726562 L 210.53125 56.726562 Z M 121.824219 77.742188 C 119.890625 80.644531 116.988281 82.816406 113.363281 84.023438 L 110.21875 80.160156 C 112.636719 78.710938 115.054688 76.535156 116.019531 74.605469 C 116.988281 72.914062 117.230469 70.496094 117.230469 64.941406 L 117.230469 27.25 L 124.484375 27.25 L 124.484375 64.457031 C 124.484375 71.945312 123.757812 74.84375 121.824219 77.742188 Z M 121.824219 77.742188 " fill-opacity="1" fill-rule="nonzero"/></svg>