<svg xmlns="http://www.w3.org/2000/svg" xmlns:xlink="http://www.w3.org/1999/xlink" width="400" zoomAndPan="magnify" viewBox="0 0 300 149.999998" height="200" preserveAspectRatio="xMidYMid meet" version="1.0"><defs><clipPath id="id1"><path d="M 28.261719 15 L 149.761719 15 L 149.761719 136.5 L 28.261719 136.5 Z M 28.261719 15 " clip-rule="nonzero"/></clipPath><clipPath id="id2"><path d="M 150 15 L 271.5 15 L 271.5 136.5 L 150 136.5 Z M 150 15 " clip-rule="nonzero"/></clipPath></defs><g clip-path="url(#id1)"><path fill="#f7df1e" d="M 28.261719 15 L 149.761719 15 L 149.761719 136.5 L 28.261719 136.5 Z M 28.261719 15 " fill-opacity="1" fill-rule="nonzero"/></g><path fill="#000000" d="M 60.207031 116.53125 L 69.507812 110.910156 C 71.300781 114.089844 72.929688 116.78125 76.847656 116.78125 C 80.597656 116.78125 82.964844 115.308594 82.964844 109.605469 L 82.964844 70.78125 L 94.378906 70.78125 L 94.378906 109.765625 C 94.378906 121.585938 87.449219 126.972656 77.335938 126.972656 C 68.199219 126.972656 62.898438 122.242188 60.207031 116.53125 " fill-opacity="1" fill-rule="nonzero"/><path fill="#000000" d="M 100.582031 115.308594 L 109.878906 109.925781 C 112.328125 113.921875 115.507812 116.859375 121.132812 116.859375 C 125.863281 116.859375 128.882812 114.496094 128.882812 111.230469 C 128.882812 107.316406 125.785156 105.929688 120.5625 103.648438 L 117.710938 102.421875 C 109.472656 98.914062 104.007812 94.515625 104.007812 85.214844 C 104.007812 76.652344 110.53125 70.125 120.730469 70.125 C 127.984375 70.125 133.207031 72.65625 136.957031 79.261719 L 128.066406 84.972656 C 126.109375 81.464844 123.988281 80.078125 120.730469 80.078125 C 117.382812 80.078125 115.261719 82.199219 115.261719 84.972656 C 115.261719 88.398438 117.382812 89.785156 122.277344 91.90625 L 125.128906 93.125 C 134.835938 97.289062 140.300781 101.527344 140.300781 111.070312 C 140.300781 121.347656 132.230469 126.972656 121.378906 126.972656 C 110.777344 126.972656 103.929688 121.914062 100.582031 115.308594 " fill-opacity="1" fill-rule="nonzero"/><g clip-path="url(#id2)"><path fill="#007acc" d="M 150 136.5 L 271.5 136.5 L 271.5 15 L 150 15 Z M 150 136.5 " fill-opacity="1" fill-rule="nonzero"/></g><path fill="#ffffff" d="M 176.863281 76.148438 L 176.824219 81.128906 L 192.640625 81.128906 L 192.640625 126.0625 L 203.824219 126.0625 L 203.824219 81.128906 L 219.640625 81.128906 L 219.640625 76.25 C 219.640625 73.546875 219.582031 71.289062 219.503906 71.230469 C 219.445312 71.15625 209.824219 71.117188 198.152344 71.136719 L 176.917969 71.195312 Z M 176.863281 76.148438 " fill-opacity="1" fill-rule="nonzero"/><path fill="#ffffff" d="M 248.039062 71.054688 C 251.125 71.824219 253.480469 73.195312 255.636719 75.433594 C 256.753906 76.628906 258.414062 78.804688 258.546875 79.328125 C 258.585938 79.484375 253.304688 83.03125 250.101562 85.019531 C 249.984375 85.09375 249.527344 84.59375 249.003906 83.824219 C 247.441406 81.546875 245.800781 80.5625 243.292969 80.390625 C 239.609375 80.140625 237.238281 82.066406 237.257812 85.289062 C 237.257812 86.234375 237.394531 86.792969 237.777344 87.5625 C 238.589844 89.242188 240.09375 90.246094 244.816406 92.289062 C 253.515625 96.03125 257.238281 98.496094 259.554688 102.011719 C 262.136719 105.925781 262.714844 112.171875 260.957031 116.816406 C 259.03125 121.871094 254.246094 125.304688 247.519531 126.441406 C 245.433594 126.808594 240.5 126.75 238.257812 126.347656 C 233.378906 125.480469 228.75 123.070312 225.898438 119.90625 C 224.78125 118.671875 222.601562 115.449219 222.734375 115.21875 C 222.796875 115.140625 223.292969 114.835938 223.855469 114.507812 C 224.394531 114.199219 226.441406 113.019531 228.367188 111.902344 L 231.855469 109.878906 L 232.589844 110.957031 C 233.613281 112.519531 235.851562 114.660156 237.199219 115.375 C 241.078125 117.414062 246.398438 117.125 249.023438 114.777344 C 250.144531 113.753906 250.601562 112.695312 250.601562 111.132812 C 250.601562 109.722656 250.433594 109.105469 249.695312 108.046875 C 248.753906 106.695312 246.824219 105.554688 241.347656 103.1875 C 235.078125 100.488281 232.378906 98.804688 229.910156 96.144531 C 228.480469 94.601562 227.132812 92.132812 226.574219 90.070312 C 226.109375 88.355469 225.996094 84.054688 226.359375 82.320312 C 227.65625 76.261719 232.226562 72.039062 238.820312 70.785156 C 240.957031 70.382812 245.9375 70.535156 248.039062 71.054688 Z M 248.039062 71.054688 " fill-opacity="1" fill-rule="nonzero"/></svg>