<svg xmlns="http://www.w3.org/2000/svg" xmlns:xlink="http://www.w3.org/1999/xlink" width="500" zoomAndPan="magnify" viewBox="0 0 375 112.499997" height="150" preserveAspectRatio="xMidYMid meet" version="1.0"><defs><clipPath id="9bbf9a062c"><path d="M 109.503906 15.441406 L 265.558594 15.441406 L 265.558594 96.832031 L 109.503906 96.832031 Z M 109.503906 15.441406 " clip-rule="nonzero"/></clipPath><clipPath id="51a0af00ea"><path d="M 109.503906 56.148438 C 109.503906 78.574219 144.4375 96.753906 187.527344 96.753906 C 230.621094 96.753906 265.554688 78.574219 265.554688 56.148438 C 265.554688 33.722656 230.621094 15.542969 187.527344 15.542969 C 144.4375 15.542969 109.503906 33.722656 109.503906 56.148438 " clip-rule="nonzero"/></clipPath><clipPath id="c4954bcab9"><path d="M 109.503906 56.148438 C 109.503906 78.574219 144.4375 96.753906 187.527344 96.753906 C 230.621094 96.753906 265.554688 78.574219 265.554688 56.148438 C 265.554688 33.722656 230.621094 15.542969 187.527344 15.542969 C 144.4375 15.542969 109.503906 33.722656 109.503906 56.148438 " clip-rule="nonzero"/></clipPath><radialGradient gradientTransform="matrix(1.005377, 0, 0, 0.994623, 156.34934, 29.818219)" gradientUnits="userSpaceOnUse" r="101.912015" cx="0" id="c76cb065aa" cy="0" fx="0" fy="0"><stop stop-opacity="1" stop-color="rgb(68.199158%, 69.799805%, 83.499146%)" offset="0"/><stop stop-opacity="1" stop-color="rgb(68.199158%, 69.799805%, 83.499146%)" offset="0.25"/><stop stop-opacity="1" stop-color="rgb(68.164062%, 69.764709%, 83.473206%)" offset="0.296875"/><stop stop-opacity="1" stop-color="rgb(67.956543%, 69.555664%, 83.317566%)" offset="0.300781"/><stop stop-opacity="1" stop-color="rgb(67.608643%, 69.20929%, 83.059692%)" offset="0.304688"/><stop stop-opacity="1" stop-color="rgb(67.260742%, 68.861389%, 82.800293%)" offset="0.308594"/><stop stop-opacity="1" stop-color="rgb(66.914368%, 68.513489%, 82.542419%)" offset="0.3125"/><stop stop-opacity="1" stop-color="rgb(66.566467%, 68.167114%, 82.28302%)" offset="0.316406"/><stop stop-opacity="1" stop-color="rgb(66.220093%, 67.819214%, 82.025146%)" offset="0.320312"/><stop stop-opacity="1" stop-color="rgb(65.872192%, 67.472839%, 81.765747%)" offset="0.324219"/><stop stop-opacity="1" stop-color="rgb(65.525818%, 67.124939%, 81.506348%)" offset="0.328125"/><stop stop-opacity="1" stop-color="rgb(65.177917%, 66.778564%, 81.248474%)" offset="0.332031"/><stop stop-opacity="1" stop-color="rgb(64.831543%, 66.430664%, 80.989075%)" offset="0.335938"/><stop stop-opacity="1" stop-color="rgb(64.483643%, 66.08429%, 80.731201%)" offset="0.339844"/><stop stop-opacity="1" stop-color="rgb(64.135742%, 65.736389%, 80.471802%)" offset="0.34375"/><stop stop-opacity="1" stop-color="rgb(63.789368%, 65.388489%, 80.213928%)" offset="0.347656"/><stop stop-opacity="1" stop-color="rgb(63.441467%, 65.042114%, 79.954529%)" offset="0.351562"/><stop stop-opacity="1" stop-color="rgb(63.095093%, 64.694214%, 79.696655%)" offset="0.355469"/><stop stop-opacity="1" stop-color="rgb(62.747192%, 64.347839%, 79.437256%)" offset="0.359375"/><stop stop-opacity="1" stop-color="rgb(62.400818%, 63.999939%, 79.179382%)" offset="0.363281"/><stop stop-opacity="1" stop-color="rgb(62.052917%, 63.653564%, 78.919983%)" offset="0.367188"/><stop stop-opacity="1" stop-color="rgb(61.706543%, 63.305664%, 78.662109%)" offset="0.371094"/><stop stop-opacity="1" stop-color="rgb(61.358643%, 62.95929%, 78.40271%)" offset="0.375"/><stop stop-opacity="1" stop-color="rgb(61.010742%, 62.611389%, 78.144836%)" offset="0.378906"/><stop stop-opacity="1" stop-color="rgb(60.664368%, 62.263489%, 77.885437%)" offset="0.382812"/><stop stop-opacity="1" stop-color="rgb(60.316467%, 61.917114%, 77.627563%)" offset="0.386719"/><stop stop-opacity="1" stop-color="rgb(59.970093%, 61.569214%, 77.368164%)" offset="0.390625"/><stop stop-opacity="1" stop-color="rgb(59.622192%, 61.222839%, 77.108765%)" offset="0.394531"/><stop stop-opacity="1" stop-color="rgb(59.275818%, 60.874939%, 76.850891%)" offset="0.398438"/><stop stop-opacity="1" stop-color="rgb(58.927917%, 60.528564%, 76.591492%)" offset="0.402344"/><stop stop-opacity="1" stop-color="rgb(58.581543%, 60.180664%, 76.333618%)" offset="0.40625"/><stop stop-opacity="1" stop-color="rgb(58.233643%, 59.83429%, 76.074219%)" offset="0.410156"/><stop stop-opacity="1" stop-color="rgb(57.885742%, 59.486389%, 75.816345%)" offset="0.414062"/><stop stop-opacity="1" stop-color="rgb(57.539368%, 59.138489%, 75.556946%)" offset="0.417969"/><stop stop-opacity="1" stop-color="rgb(57.191467%, 58.792114%, 75.299072%)" offset="0.421875"/><stop stop-opacity="1" stop-color="rgb(56.845093%, 58.444214%, 75.039673%)" offset="0.425781"/><stop stop-opacity="1" stop-color="rgb(56.497192%, 58.097839%, 74.781799%)" offset="0.429688"/><stop stop-opacity="1" stop-color="rgb(56.150818%, 57.749939%, 74.5224%)" offset="0.433594"/><stop stop-opacity="1" stop-color="rgb(55.802917%, 57.403564%, 74.264526%)" offset="0.4375"/><stop stop-opacity="1" stop-color="rgb(55.456543%, 57.055664%, 74.005127%)" offset="0.441406"/><stop stop-opacity="1" stop-color="rgb(55.108643%, 56.70929%, 73.747253%)" offset="0.445312"/><stop stop-opacity="1" stop-color="rgb(54.760742%, 56.361389%, 73.487854%)" offset="0.449219"/><stop stop-opacity="1" stop-color="rgb(54.414368%, 56.013489%, 73.22998%)" offset="0.453125"/><stop stop-opacity="1" stop-color="rgb(54.066467%, 55.667114%, 72.970581%)" offset="0.457031"/><stop stop-opacity="1" stop-color="rgb(53.720093%, 55.319214%, 72.711182%)" offset="0.460938"/><stop stop-opacity="1" stop-color="rgb(53.372192%, 54.972839%, 72.453308%)" offset="0.464844"/><stop stop-opacity="1" stop-color="rgb(53.025818%, 54.624939%, 72.193909%)" offset="0.46875"/><stop stop-opacity="1" stop-color="rgb(52.677917%, 54.278564%, 71.936035%)" offset="0.472656"/><stop stop-opacity="1" stop-color="rgb(52.331543%, 53.930664%, 71.676636%)" offset="0.476562"/><stop stop-opacity="1" stop-color="rgb(51.983643%, 53.58429%, 71.418762%)" offset="0.480469"/><stop stop-opacity="1" stop-color="rgb(51.635742%, 53.236389%, 71.159363%)" offset="0.484375"/><stop stop-opacity="1" stop-color="rgb(51.289368%, 52.888489%, 70.901489%)" offset="0.488281"/><stop stop-opacity="1" stop-color="rgb(50.941467%, 52.542114%, 70.64209%)" offset="0.492188"/><stop stop-opacity="1" stop-color="rgb(50.595093%, 52.194214%, 70.384216%)" offset="0.496094"/><stop stop-opacity="1" stop-color="rgb(50.247192%, 51.847839%, 70.124817%)" offset="0.5"/><stop stop-opacity="1" stop-color="rgb(49.900818%, 51.499939%, 69.866943%)" offset="0.503906"/><stop stop-opacity="1" stop-color="rgb(49.552917%, 51.153564%, 69.607544%)" offset="0.507812"/><stop stop-opacity="1" stop-color="rgb(49.206543%, 50.805664%, 69.34967%)" offset="0.511719"/><stop stop-opacity="1" stop-color="rgb(48.858643%, 50.45929%, 69.090271%)" offset="0.515625"/><stop stop-opacity="1" stop-color="rgb(48.510742%, 50.111389%, 68.832397%)" offset="0.519531"/><stop stop-opacity="1" stop-color="rgb(48.164368%, 49.763489%, 68.572998%)" offset="0.523438"/><stop stop-opacity="1" stop-color="rgb(47.816467%, 49.417114%, 68.313599%)" offset="0.527344"/><stop stop-opacity="1" stop-color="rgb(47.470093%, 49.069214%, 68.055725%)" offset="0.53125"/><stop stop-opacity="1" stop-color="rgb(47.122192%, 48.722839%, 67.796326%)" offset="0.535156"/><stop stop-opacity="1" stop-color="rgb(46.775818%, 48.374939%, 67.538452%)" offset="0.539062"/><stop stop-opacity="1" stop-color="rgb(46.427917%, 48.028564%, 67.279053%)" offset="0.542969"/><stop stop-opacity="1" stop-color="rgb(46.081543%, 47.680664%, 67.021179%)" offset="0.546875"/><stop stop-opacity="1" stop-color="rgb(45.733643%, 47.33429%, 66.76178%)" offset="0.550781"/><stop stop-opacity="1" stop-color="rgb(45.385742%, 46.986389%, 66.503906%)" offset="0.554688"/><stop stop-opacity="1" stop-color="rgb(45.039368%, 46.638489%, 66.244507%)" offset="0.558594"/><stop stop-opacity="1" stop-color="rgb(44.691467%, 46.292114%, 65.986633%)" offset="0.5625"/><stop stop-opacity="1" stop-color="rgb(44.345093%, 45.944214%, 65.727234%)" offset="0.566406"/><stop stop-opacity="1" stop-color="rgb(43.997192%, 45.597839%, 65.46936%)" offset="0.570312"/><stop stop-opacity="1" stop-color="rgb(43.650818%, 45.249939%, 65.209961%)" offset="0.574219"/><stop stop-opacity="1" stop-color="rgb(43.302917%, 44.903564%, 64.952087%)" offset="0.578125"/><stop stop-opacity="1" stop-color="rgb(42.956543%, 44.555664%, 64.692688%)" offset="0.582031"/><stop stop-opacity="1" stop-color="rgb(42.608643%, 44.20929%, 64.434814%)" offset="0.585938"/><stop stop-opacity="1" stop-color="rgb(42.260742%, 43.861389%, 64.175415%)" offset="0.589844"/><stop stop-opacity="1" stop-color="rgb(41.914368%, 43.513489%, 63.916016%)" offset="0.59375"/><stop stop-opacity="1" stop-color="rgb(41.566467%, 43.167114%, 63.658142%)" offset="0.597656"/><stop stop-opacity="1" stop-color="rgb(41.220093%, 42.819214%, 63.398743%)" offset="0.601562"/><stop stop-opacity="1" stop-color="rgb(40.872192%, 42.472839%, 63.140869%)" offset="0.605469"/><stop stop-opacity="1" stop-color="rgb(40.525818%, 42.124939%, 62.88147%)" offset="0.609375"/><stop stop-opacity="1" stop-color="rgb(40.177917%, 41.778564%, 62.623596%)" offset="0.613281"/><stop stop-opacity="1" stop-color="rgb(39.831543%, 41.430664%, 62.364197%)" offset="0.617188"/><stop stop-opacity="1" stop-color="rgb(39.483643%, 41.08429%, 62.106323%)" offset="0.621094"/><stop stop-opacity="1" stop-color="rgb(39.135742%, 40.736389%, 61.846924%)" offset="0.625"/><stop stop-opacity="1" stop-color="rgb(38.789368%, 40.388489%, 61.58905%)" offset="0.628906"/><stop stop-opacity="1" stop-color="rgb(38.441467%, 40.042114%, 61.329651%)" offset="0.632812"/><stop stop-opacity="1" stop-color="rgb(38.095093%, 39.694214%, 61.071777%)" offset="0.636719"/><stop stop-opacity="1" stop-color="rgb(37.747192%, 39.347839%, 60.812378%)" offset="0.640625"/><stop stop-opacity="1" stop-color="rgb(37.400818%, 38.999939%, 60.554504%)" offset="0.644531"/><stop stop-opacity="1" stop-color="rgb(37.052917%, 38.653564%, 60.295105%)" offset="0.648438"/><stop stop-opacity="1" stop-color="rgb(36.706543%, 38.305664%, 60.037231%)" offset="0.652344"/><stop stop-opacity="1" stop-color="rgb(36.358643%, 37.95929%, 59.777832%)" offset="0.65625"/><stop stop-opacity="1" stop-color="rgb(36.010742%, 37.611389%, 59.518433%)" offset="0.660156"/><stop stop-opacity="1" stop-color="rgb(35.664368%, 37.263489%, 59.260559%)" offset="0.664062"/><stop stop-opacity="1" stop-color="rgb(35.316467%, 36.917114%, 59.00116%)" offset="0.667969"/><stop stop-opacity="1" stop-color="rgb(34.970093%, 36.569214%, 58.743286%)" offset="0.671875"/><stop stop-opacity="1" stop-color="rgb(34.622192%, 36.222839%, 58.483887%)" offset="0.675781"/><stop stop-opacity="1" stop-color="rgb(34.275818%, 35.874939%, 58.226013%)" offset="0.679688"/><stop stop-opacity="1" stop-color="rgb(33.927917%, 35.528564%, 57.966614%)" offset="0.683594"/><stop stop-opacity="1" stop-color="rgb(33.581543%, 35.180664%, 57.70874%)" offset="0.6875"/><stop stop-opacity="1" stop-color="rgb(33.233643%, 34.83429%, 57.449341%)" offset="0.691406"/><stop stop-opacity="1" stop-color="rgb(32.885742%, 34.486389%, 57.191467%)" offset="0.695312"/><stop stop-opacity="1" stop-color="rgb(32.539368%, 34.138489%, 56.932068%)" offset="0.699219"/><stop stop-opacity="1" stop-color="rgb(32.191467%, 33.792114%, 56.674194%)" offset="0.703125"/><stop stop-opacity="1" stop-color="rgb(31.845093%, 33.444214%, 56.414795%)" offset="0.707031"/><stop stop-opacity="1" stop-color="rgb(31.497192%, 33.097839%, 56.156921%)" offset="0.710938"/><stop stop-opacity="1" stop-color="rgb(31.150818%, 32.749939%, 55.897522%)" offset="0.714844"/><stop stop-opacity="1" stop-color="rgb(30.802917%, 32.403564%, 55.639648%)" offset="0.71875"/><stop stop-opacity="1" stop-color="rgb(30.456543%, 32.055664%, 55.380249%)" offset="0.722656"/><stop stop-opacity="1" stop-color="rgb(30.108643%, 31.70929%, 55.122375%)" offset="0.726562"/><stop stop-opacity="1" stop-color="rgb(29.760742%, 31.361389%, 54.862976%)" offset="0.730469"/><stop stop-opacity="1" stop-color="rgb(29.414368%, 31.013489%, 54.603577%)" offset="0.734375"/><stop stop-opacity="1" stop-color="rgb(29.066467%, 30.667114%, 54.345703%)" offset="0.738281"/><stop stop-opacity="1" stop-color="rgb(28.720093%, 30.319214%, 54.086304%)" offset="0.742188"/><stop stop-opacity="1" stop-color="rgb(28.372192%, 29.972839%, 53.82843%)" offset="0.746094"/><stop stop-opacity="1" stop-color="rgb(28.199768%, 29.798889%, 53.69873%)" offset="1"/></radialGradient></defs><g clip-path="url(#9bbf9a062c)"><g clip-path="url(#51a0af00ea)"><g clip-path="url(#c4954bcab9)"><path fill="url(#c76cb065aa)" d="M 109.503906 15.542969 L 109.503906 96.753906 L 265.554688 96.753906 L 265.554688 15.542969 Z M 109.503906 15.542969 " fill-rule="nonzero"/></g></g></g><path fill="#777bb3" d="M 187.527344 93.738281 C 228.9375 93.738281 262.507812 76.910156 262.507812 56.148438 C 262.507812 35.386719 228.9375 18.558594 187.527344 18.558594 C 146.121094 18.558594 112.550781 35.386719 112.550781 56.148438 C 112.550781 76.910156 146.117188 93.738281 187.527344 93.738281 " fill-opacity="1" fill-rule="nonzero"/><path fill="#000000" d="M 151.894531 60.808594 C 155.296875 60.808594 157.839844 60.1875 159.449219 58.964844 C 161.039062 57.75 162.136719 55.652344 162.714844 52.722656 C 163.25 49.984375 163.046875 48.074219 162.105469 47.042969 C 161.144531 45.988281 159.066406 45.453125 155.925781 45.453125 L 150.488281 45.453125 L 147.46875 60.808594 Z M 134.097656 79.726562 C 133.84375 79.726562 133.605469 79.613281 133.445312 79.421875 C 133.273438 79.21875 133.214844 78.984375 133.265625 78.726562 L 141.261719 38.035156 C 141.300781 37.839844 141.398438 37.675781 141.554688 37.546875 C 141.710938 37.421875 141.890625 37.359375 142.089844 37.359375 L 159.320312 37.359375 C 164.738281 37.359375 168.765625 38.808594 171.300781 41.679688 C 173.847656 44.566406 174.632812 48.597656 173.636719 53.664062 C 173.234375 55.730469 172.535156 57.644531 171.566406 59.363281 C 170.597656 61.082031 169.3125 62.671875 167.753906 64.089844 C 165.886719 65.816406 163.773438 67.070312 161.480469 67.808594 C 159.21875 68.539062 156.320312 68.90625 152.859375 68.90625 L 145.882812 68.90625 L 143.890625 79.046875 C 143.851562 79.246094 143.753906 79.40625 143.597656 79.535156 C 143.441406 79.660156 143.261719 79.726562 143.058594 79.726562 L 134.09375 79.726562 Z M 134.097656 79.726562 " fill-opacity="1" fill-rule="nonzero"/><path fill="#ffffff" d="M 151.183594 46.289062 L 155.929688 46.289062 C 159.714844 46.289062 161.03125 47.113281 161.480469 47.601562 C 162.21875 48.417969 162.359375 50.132812 161.882812 52.5625 C 161.347656 55.285156 160.355469 57.214844 158.933594 58.300781 C 157.476562 59.410156 155.105469 59.972656 151.894531 59.972656 L 148.5 59.972656 L 151.1875 46.289062 Z M 159.320312 36.519531 L 142.09375 36.519531 C 141.6875 36.519531 141.328125 36.644531 141.015625 36.902344 C 140.703125 37.15625 140.507812 37.480469 140.429688 37.875 L 132.4375 78.570312 C 132.386719 78.816406 132.394531 79.058594 132.457031 79.300781 C 132.519531 79.542969 132.628906 79.761719 132.792969 79.953125 C 132.953125 80.148438 133.148438 80.296875 133.375 80.402344 C 133.605469 80.511719 133.84375 80.5625 134.097656 80.5625 L 143.058594 80.5625 C 143.464844 80.5625 143.824219 80.4375 144.136719 80.179688 C 144.449219 79.925781 144.644531 79.601562 144.71875 79.207031 L 146.578125 69.746094 L 152.859375 69.746094 C 156.410156 69.746094 159.398438 69.363281 161.742188 68.605469 C 164.152344 67.832031 166.371094 66.519531 168.332031 64.703125 C 169.957031 63.226562 171.296875 61.566406 172.308594 59.773438 C 173.316406 57.980469 174.046875 55.976562 174.472656 53.824219 C 175.519531 48.492188 174.667969 44.222656 171.941406 41.132812 C 169.238281 38.074219 164.992188 36.519531 159.324219 36.519531 M 146.445312 61.648438 L 151.894531 61.648438 C 155.507812 61.648438 158.199219 60.976562 159.964844 59.628906 C 161.734375 58.28125 162.925781 56.035156 163.546875 52.882812 C 164.140625 49.859375 163.871094 47.726562 162.738281 46.484375 C 161.605469 45.238281 159.332031 44.617188 155.929688 44.617188 L 149.789062 44.617188 L 146.445312 61.648438 M 159.324219 38.195312 C 164.507812 38.195312 168.289062 39.542969 170.664062 42.234375 C 173.042969 44.925781 173.757812 48.683594 172.808594 53.503906 C 172.417969 55.492188 171.757812 57.308594 170.828125 58.957031 C 169.898438 60.601562 168.683594 62.109375 167.183594 63.472656 C 165.394531 65.128906 163.40625 66.3125 161.21875 67.015625 C 159.03125 67.71875 156.246094 68.070312 152.859375 68.070312 L 145.183594 68.070312 L 143.058594 78.890625 L 134.097656 78.890625 L 142.09375 38.199219 L 159.324219 38.199219 " fill-opacity="1" fill-rule="nonzero"/><path fill="#000000" d="M 194.183594 68.90625 C 193.929688 68.90625 193.691406 68.792969 193.53125 68.601562 C 193.367188 68.40625 193.304688 68.152344 193.351562 67.90625 L 196.886719 49.902344 C 197.222656 48.191406 197.140625 46.960938 196.65625 46.441406 C 196.355469 46.125 195.460938 45.59375 192.816406 45.59375 L 186.40625 45.59375 L 181.960938 68.226562 C 181.921875 68.425781 181.824219 68.585938 181.667969 68.714844 C 181.511719 68.839844 181.332031 68.90625 181.128906 68.90625 L 172.242188 68.90625 C 172.113281 68.90625 171.992188 68.878906 171.878906 68.824219 C 171.765625 68.773438 171.667969 68.695312 171.585938 68.601562 C 171.507812 68.503906 171.453125 68.394531 171.421875 68.273438 C 171.390625 68.152344 171.386719 68.03125 171.410156 67.90625 L 179.402344 27.214844 C 179.441406 27.019531 179.539062 26.855469 179.695312 26.730469 C 179.851562 26.601562 180.03125 26.539062 180.234375 26.539062 L 189.125 26.539062 C 189.25 26.539062 189.371094 26.5625 189.484375 26.617188 C 189.601562 26.671875 189.699219 26.746094 189.777344 26.84375 C 189.859375 26.9375 189.914062 27.046875 189.945312 27.167969 C 189.976562 27.289062 189.980469 27.414062 189.957031 27.535156 L 188.027344 37.355469 L 194.917969 37.355469 C 200.167969 37.355469 203.730469 38.273438 205.804688 40.15625 C 207.921875 42.078125 208.578125 45.152344 207.765625 49.292969 L 204.046875 68.226562 C 204.007812 68.425781 203.910156 68.585938 203.753906 68.714844 C 203.597656 68.84375 203.417969 68.90625 203.214844 68.90625 Z M 194.183594 68.90625 " fill-opacity="1" fill-rule="nonzero"/><path fill="#ffffff" d="M 189.125 25.699219 L 180.234375 25.699219 C 179.832031 25.699219 179.472656 25.828125 179.160156 26.082031 C 178.847656 26.335938 178.652344 26.660156 178.574219 27.054688 L 170.578125 67.75 C 170.53125 67.992188 170.539062 68.238281 170.601562 68.480469 C 170.664062 68.722656 170.773438 68.941406 170.933594 69.132812 C 171.09375 69.324219 171.289062 69.476562 171.519531 69.582031 C 171.746094 69.6875 171.988281 69.742188 172.242188 69.742188 L 181.132812 69.742188 C 181.535156 69.742188 181.894531 69.613281 182.207031 69.359375 C 182.519531 69.105469 182.714844 68.78125 182.792969 68.386719 L 187.105469 46.429688 L 192.816406 46.429688 C 195.457031 46.429688 196.011719 46.988281 196.035156 47.011719 C 196.195312 47.183594 196.40625 47.972656 196.058594 49.742188 L 192.523438 67.75 C 192.472656 67.992188 192.480469 68.238281 192.542969 68.480469 C 192.605469 68.722656 192.714844 68.941406 192.878906 69.132812 C 193.039062 69.324219 193.234375 69.476562 193.460938 69.582031 C 193.691406 69.6875 193.929688 69.742188 194.183594 69.742188 L 203.214844 69.742188 C 203.621094 69.742188 203.980469 69.613281 204.292969 69.359375 C 204.605469 69.105469 204.800781 68.78125 204.875 68.386719 L 208.597656 49.449219 C 209.46875 45.007812 208.722656 41.671875 206.378906 39.539062 C 204.140625 37.507812 200.394531 36.519531 194.921875 36.519531 L 189.054688 36.519531 L 190.789062 27.695312 C 190.835938 27.449219 190.828125 27.207031 190.769531 26.960938 C 190.707031 26.71875 190.59375 26.503906 190.433594 26.308594 C 190.273438 26.117188 190.078125 25.964844 189.847656 25.859375 C 189.621094 25.753906 189.378906 25.699219 189.125 25.699219 M 189.125 27.375 L 187 38.195312 L 194.921875 38.195312 C 199.902344 38.195312 203.339844 39.054688 205.234375 40.773438 C 207.125 42.492188 207.691406 45.277344 206.933594 49.132812 L 203.214844 68.066406 L 194.183594 68.066406 L 197.722656 50.0625 C 198.125 48.015625 197.976562 46.617188 197.277344 45.871094 C 196.578125 45.128906 195.089844 44.753906 192.816406 44.753906 L 185.710938 44.753906 L 181.132812 68.066406 L 172.242188 68.066406 L 180.234375 27.375 L 189.125 27.375 " fill-opacity="1" fill-rule="nonzero"/><path fill="#000000" d="M 221.832031 60.808594 C 225.234375 60.808594 227.777344 60.1875 229.386719 58.964844 C 230.976562 57.75 232.074219 55.652344 232.652344 52.722656 C 233.1875 49.984375 232.984375 48.074219 232.042969 47.042969 C 231.082031 45.988281 229.003906 45.453125 225.867188 45.453125 L 220.425781 45.453125 L 217.40625 60.808594 Z M 204.035156 79.722656 C 203.78125 79.722656 203.542969 79.613281 203.382812 79.417969 C 203.210938 79.214844 203.152344 78.984375 203.203125 78.726562 L 211.199219 38.035156 C 211.234375 37.835938 211.332031 37.675781 211.492188 37.546875 C 211.648438 37.421875 211.828125 37.355469 212.027344 37.355469 L 229.257812 37.355469 C 234.675781 37.355469 238.703125 38.808594 241.238281 41.679688 C 243.785156 44.566406 244.570312 48.597656 243.574219 53.664062 C 243.171875 55.726562 242.472656 57.644531 241.503906 59.363281 C 240.53125 61.082031 239.25 62.671875 237.691406 64.089844 C 235.824219 65.816406 233.710938 67.070312 231.414062 67.808594 C 229.15625 68.535156 226.257812 68.90625 222.792969 68.90625 L 215.8125 68.90625 L 213.820312 79.046875 C 213.78125 79.242188 213.683594 79.40625 213.527344 79.535156 C 213.371094 79.660156 213.191406 79.726562 212.988281 79.726562 L 204.03125 79.726562 Z M 204.035156 79.722656 " fill-opacity="1" fill-rule="nonzero"/><path fill="#ffffff" d="M 221.121094 46.289062 L 225.867188 46.289062 C 229.652344 46.289062 230.96875 47.113281 231.417969 47.601562 C 232.160156 48.417969 232.296875 50.132812 231.820312 52.5625 C 231.285156 55.285156 230.292969 57.214844 228.871094 58.300781 C 227.414062 59.410156 225.042969 59.972656 221.832031 59.972656 L 218.4375 59.972656 Z M 229.257812 36.519531 L 212.027344 36.519531 C 211.625 36.519531 211.265625 36.644531 210.953125 36.902344 C 210.640625 37.15625 210.445312 37.480469 210.367188 37.875 L 202.371094 78.570312 C 202.324219 78.816406 202.332031 79.058594 202.394531 79.300781 C 202.453125 79.542969 202.566406 79.761719 202.726562 79.953125 C 202.886719 80.148438 203.082031 80.296875 203.3125 80.402344 C 203.539062 80.511719 203.78125 80.5625 204.035156 80.5625 L 212.992188 80.5625 C 213.398438 80.5625 213.757812 80.4375 214.070312 80.179688 C 214.382812 79.925781 214.578125 79.601562 214.65625 79.207031 L 216.515625 69.746094 L 222.792969 69.746094 C 226.34375 69.746094 229.335938 69.363281 231.679688 68.605469 C 234.089844 67.832031 236.304688 66.519531 238.269531 64.703125 C 239.894531 63.226562 241.230469 61.566406 242.242188 59.773438 C 243.253906 57.980469 243.984375 55.976562 244.40625 53.824219 C 245.457031 48.492188 244.601562 44.21875 241.875 41.132812 C 239.175781 38.074219 234.929688 36.519531 229.257812 36.519531 M 216.378906 61.648438 L 221.832031 61.648438 C 225.441406 61.648438 228.132812 60.976562 229.902344 59.628906 C 231.667969 58.28125 232.863281 56.035156 233.484375 52.882812 C 234.074219 49.859375 233.804688 47.726562 232.671875 46.484375 C 231.539062 45.238281 229.269531 44.617188 225.867188 44.617188 L 219.726562 44.617188 L 216.382812 61.648438 M 229.257812 38.195312 C 234.441406 38.195312 238.222656 39.542969 240.601562 42.234375 C 242.976562 44.925781 243.691406 48.683594 242.746094 53.503906 C 242.355469 55.492188 241.695312 57.308594 240.765625 58.957031 C 239.835938 60.601562 238.621094 62.109375 237.117188 63.472656 C 235.328125 65.128906 233.339844 66.3125 231.152344 67.015625 C 228.96875 67.71875 226.179688 68.070312 222.792969 68.070312 L 215.121094 68.070312 L 212.996094 78.890625 L 204.035156 78.890625 L 212.027344 38.195312 L 229.257812 38.195312 " fill-opacity="1" fill-rule="nonzero"/></svg>